<svg width="334" height="166" viewBox="0 0 334 166" fill="none" xmlns="http://www.w3.org/2000/svg">
<path d="M108 57C85.6 55 26.6667 85.5 0 101C0 103.5 7 113.8 35 135C63 156.2 97.6667 145.833 111.5 138C121.1 155.2 163.167 163.833 183 166L154.5 135L270 108.5C272.8 119.3 298.5 130.667 311 135L295 95L333.5 45.5C304.7 42.7 273.833 71.3333 262 86L154.5 57L145 0C131 0 114.5 38 108 57Z" fill="#2D7DC7"/>
<path d="M36.5 103.5L54 97.5" stroke="black" stroke-width="5" stroke-linejoin="round"/>
<path d="M25.5 127C35.1667 119.833 62.2 106 93 108" stroke="black" stroke-width="5" stroke-linejoin="round"/>
</svg>
