<svg width="377" height="313" viewBox="0 0 377 313" fill="none" xmlns="http://www.w3.org/2000/svg">
<path d="M68.4466 69.839C93.0057 50.2644 82.7938 40.4693 74.6179 38.0186C92.7144 31.7874 90.372 58.1904 81.1171 70.4755C71.8623 82.7607 62.633 94.5375 71.2702 104.662C79.9074 114.786 87.0541 114.125 110.977 113.286C134.9 112.448 156.135 114.535 171.455 143.355C183.71 166.411 204.211 168.971 212.929 167.369L203.721 188.836C196.16 191.006 176.809 186.464 159.896 150.934C138.754 106.521 124.682 123.665 96.1214 125.8C67.5605 127.935 37.7476 94.3073 68.4466 69.839Z" fill="#A6A8DA"/>
<path d="M176.274 281.432C207.439 277.551 207.306 291.7 203.344 299.26C220.449 290.674 199.93 273.894 184.675 271.926C169.421 269.957 154.547 268.325 153.345 255.072C152.142 241.819 157.61 237.17 174.931 220.648C192.252 204.126 205.603 187.481 195.701 156.381C187.779 131.5 200.278 115.05 207.518 109.936L185.729 101.515C178.892 105.405 168.614 122.419 182.201 159.349C199.185 205.512 177.089 203.592 155.598 222.525C134.108 241.457 137.318 286.283 176.274 281.432Z" fill="#A6A8DA"/>
<path d="M311.639 11.633C332.039 34.833 341.139 24.2997 343.139 16.133C350.139 33.633 324.139 32.6331 311.639 24.1331C299.139 15.6331 287.139 7.13306 277.639 16.133C268.139 25.133 269.139 32.1331 271.139 55.6331C273.139 79.1331 272.139 100.133 244.639 116.633C222.639 129.833 221.139 150.133 223.139 158.633L201.639 150.633C199.139 143.3 202.639 124.033 236.639 105.633C279.139 82.6331 261.639 69.633 258.139 41.633C254.639 13.633 286.139 -17.367 311.639 11.633Z" fill="#DD74A8"/>
<path d="M311.639 11.633C332.039 34.833 341.139 24.2997 343.139 16.133C350.139 33.633 324.139 32.6331 311.639 24.1331C299.139 15.6331 287.139 7.13306 277.639 16.133C268.139 25.133 269.139 32.1331 271.139 55.6331C273.139 79.1331 272.139 100.133 244.639 116.633C222.639 129.833 221.139 150.133 223.139 158.633L201.639 150.633C199.139 143.3 202.639 124.033 236.639 105.633C279.139 82.6331 261.639 69.633 258.139 41.633C254.639 13.633 286.139 -17.367 311.639 11.633Z" fill="#A6A8DA"/>
<path d="M159.768 59.4485C166.568 72.2485 162.601 84.1151 159.768 88.4485C156.967 96.7173 162.601 108.227 165.768 112.948C161.768 121.348 167.434 131.115 170.768 134.948C159.968 150.148 163.268 147.115 166.268 151.448C136.268 204.448 85.2676 191.782 68.7676 157.948C59.7676 137.282 49.8676 91.2485 22.2676 102.448C-5.33236 113.648 -1.56569 128.782 3.76764 134.948C6.96764 117.348 24.7676 118.948 33.2676 121.948C56.8676 130.348 52.7213 188.239 87.7676 204.448C124.916 221.631 182.268 187.948 191.268 187.948C200.268 187.948 178.768 232.448 163.268 229.448C147.768 226.448 86.2676 232.448 93.7676 253.948C99.7676 271.148 85.9343 281.448 78.2676 284.448C96.7676 290.948 100.768 264.948 100.768 261.448C100.768 257.948 91.7676 232.448 159.768 241.948C214.167 249.548 227.434 198.782 227.268 172.448C230.268 176.448 234.468 194.048 227.268 232.448C218.267 280.448 236.268 276.448 254.268 277.948C272.268 279.448 284.768 252.448 290.268 215.448C294.668 185.848 324.768 184.782 339.268 187.948C276.768 151.448 275.268 220.448 271.268 236.448C268.893 245.948 236.268 275.845 250.768 236.448C270.517 182.788 248.934 151.948 236.268 143.448C249.101 141.948 263.768 151.448 280.268 130.448C285.272 124.08 297.434 95.2818 303.268 81.9485C324.868 50.7485 350.268 68.9485 360.268 81.9485C367.468 123.148 337.416 126.448 329.768 126.448C324.768 126.448 319.768 118.948 312.768 103.448C307.768 94.4485 299.996 98.185 298.268 102.448C302.434 101.782 310.768 103.548 310.768 115.948C310.768 128.348 322.434 133.782 328.268 134.948C334.434 136.448 350.768 134.748 366.768 115.948C386.768 92.4485 376.268 64.9485 339.268 49.4485C302.268 33.9485 276.768 68.9485 271.268 94.4485C265.768 119.948 248.768 115.948 242.268 115.948C235.768 115.948 204.768 112.448 211.768 107.448C217.368 103.448 219.101 97.1152 219.268 94.4485C218.768 89.9485 219.668 81.1485 227.268 81.9485C236.767 82.9485 255.268 55.9485 257.768 43.9485C260.268 31.9485 257.768 9.44847 227.268 0.948467C196.768 -7.55153 151.268 43.4485 159.768 59.4485Z" fill="#6E71C0"/>
<circle cx="192.5" cy="89.5" r="4.5" fill="black"/>
<circle cx="172.5" cy="89.5" r="4.5" fill="black"/>
<path d="M169.5 76L181.5 84L201 73.5" stroke="black" stroke-width="3"/>
</svg>
