
<svg width="985" height="176" viewBox="0 0 985 176" fill="none" xmlns="http://www.w3.org/2000/svg">
    <path d="M192.585 106.183C178.454 124.914 182.964 160.532 186.985 176H201.202C202.638 176 203.873 170.977 197.324 150.883C189.139 125.766 230.067 94.6886 199.478 73.4029C175.008 56.3743 180.953 35.3724 186.985 27C160.446 43.688 169.034 59.2124 176.645 64.8886C187.846 70.8486 206.716 87.4514 192.585 106.183Z" fill="#032125"/>
    <path d="M14.8957 124.452C-8.96518 148.378 4.95366 168.12 14.8957 175H46C29.6667 175 3.98783 165.901 31.9391 129.507C59.8904 93.1123 20.2928 62.6712 -3 52C12.9073 66.1815 38.7566 100.526 14.8957 124.452Z" fill="#011315"/>
    <path d="M64.5001 93.5C48.1001 115.5 53.3334 157.333 58.0001 175.5H74.5001C76.1667 175.5 77.6001 169.6 70.0001 146C60.5001 116.5 108 80 72.5001 55C44.1001 35 51.0001 10.3333 58.0001 0.5C27.2001 20.1 37.1667 38.3333 46.0001 45C59.0001 52 80.9001 71.5 64.5001 93.5Z" fill="#02171A"/>
    <path d="M166.583 140.247C183.139 157.17 173.481 171.134 166.583 176H145C156.333 176 174.151 169.564 154.757 143.822C135.362 118.079 162.838 96.5479 179 89C167.962 99.0308 150.026 123.323 166.583 140.247Z" fill="#02171A"/>
    <path d="M458.457 106.183C444.326 124.914 448.836 160.532 452.857 176H467.074C468.51 176 469.745 170.977 463.196 150.883C455.011 125.766 495.939 94.6886 465.35 73.4029C440.88 56.3743 446.825 35.3724 452.857 27C426.318 43.688 434.906 59.2124 442.517 64.8886C453.718 70.8486 472.588 87.4514 458.457 106.183Z" fill="#02171A"/>
    <path d="M389.372 93.5C372.972 115.5 378.206 157.333 382.872 175.5H399.372C401.039 175.5 402.472 169.6 394.872 146C385.372 116.5 432.872 80 397.372 55C368.972 35 375.872 10.3333 382.872 0.5C352.072 20.1 362.039 38.3333 370.872 45C383.872 52 405.772 71.5 389.372 93.5Z" fill="#011315"/>
    <path d="M432.455 140.247C449.011 157.17 439.353 171.134 432.455 176H410.872C422.205 176 440.023 169.564 420.629 143.822C401.234 118.079 428.71 96.5479 444.872 89C433.834 99.0308 415.898 123.323 432.455 140.247Z" fill="#02171A"/>
    <path d="M325.104 124.452C348.965 148.378 335.046 168.12 325.104 175H294C310.333 175 336.012 165.901 308.061 129.507C280.11 93.1123 319.707 62.6712 343 52C327.093 66.1815 301.243 100.526 325.104 124.452Z" fill="#010E10"/>
    <path d="M275.5 93.5C291.9 115.5 286.666 157.333 282 175.5H265.5C263.833 175.5 262.4 169.6 270 146C279.5 116.5 232 80 267.5 55C295.9 35 289 10.3333 282 0.5C312.8 20.1 302.833 38.3333 294 45C281 52 259.1 71.5 275.5 93.5Z" fill="#02171A"/>
    <path d="M232.417 140.247C215.861 157.17 225.519 171.134 232.417 176H254C242.667 176 224.849 169.564 244.243 143.822C263.638 118.079 236.162 96.5479 220 89C231.038 99.0308 248.974 123.323 232.417 140.247Z" fill="#010E10"/>
    <path d="M834.585 105.683C820.454 124.414 824.964 160.032 828.985 175.5H843.202C844.638 175.5 845.873 170.477 839.324 150.383C831.139 125.266 872.067 94.1886 841.478 72.9029C817.008 55.8743 822.953 34.8724 828.985 26.5C802.446 43.188 811.034 58.7124 818.645 64.3886C829.846 70.3486 848.716 86.9514 834.585 105.683Z" fill="#02171A"/>
    <path d="M715.896 123.952C692.035 147.878 705.954 167.62 715.896 174.5H747C730.667 174.5 704.988 165.401 732.939 129.007C760.89 92.6123 721.293 62.1712 698 51.5C713.907 65.6815 739.757 100.026 715.896 123.952Z" fill="#010E10"/>
    <path d="M765.5 93C749.1 115 754.334 156.833 759 175H775.5C777.167 175 778.6 169.1 771 145.5C761.5 116 809 79.5 773.5 54.5C745.1 34.5 752 9.83333 759 0C728.2 19.6 738.167 37.8333 747 44.5C760 51.5 781.9 71 765.5 93Z" fill="#011315"/>
    <path d="M808.583 139.747C825.139 156.67 815.481 170.634 808.583 175.5H787C798.333 175.5 816.151 169.064 796.757 143.322C777.362 117.579 804.838 96.0479 821 88.5C809.962 98.5308 792.026 122.823 808.583 139.747Z" fill="#032125"/>
    <path d="M511.896 123.952C488.035 147.878 501.954 167.62 511.896 174.5H543C526.667 174.5 500.988 165.401 528.939 129.007C556.89 92.6123 517.293 62.1712 494 51.5C509.907 65.6815 535.757 100.026 511.896 123.952Z" fill="#011315"/>
    <path d="M561.5 93C545.1 115 550.334 156.833 555 175H571.5C573.167 175 574.6 169.1 567 145.5C557.5 116 605 79.5 569.5 54.5C541.1 34.5 548 9.83333 555 0C524.2 19.6 534.167 37.8333 543 44.5C556 51.5 577.9 71 561.5 93Z" fill="#02171A"/>
    <path d="M604.583 139.747C621.139 156.67 611.481 170.634 604.583 175.5H583C594.333 175.5 612.151 169.064 592.757 143.322C573.362 117.579 600.838 96.0479 617 88.5C605.962 98.5308 588.026 122.823 604.583 139.747Z" fill="#032125"/>
    <path d="M967.104 123.952C990.965 147.878 977.046 167.62 967.104 174.5H936C952.333 174.5 978.012 165.401 950.061 129.007C922.11 92.6123 961.707 62.1712 985 51.5C969.093 65.6815 943.243 100.026 967.104 123.952Z" fill="#010E10"/>
    <path d="M917.5 93C933.9 115 928.666 156.833 924 175H907.5C905.833 175 904.4 169.1 912 145.5C921.5 116 874 79.5 909.5 54.5C937.9 34.5 931 9.83333 924 0C954.8 19.6 944.833 37.8333 936 44.5C923 51.5 901.1 71 917.5 93Z" fill="#02171A"/>
    <path d="M874.417 139.747C857.861 156.67 867.519 170.634 874.417 175.5H896C884.667 175.5 866.849 169.064 886.243 143.322C905.638 117.579 878.162 96.0479 862 88.5C873.038 98.5308 890.974 122.823 874.417 139.747Z" fill="#011315"/>
</svg>