<svg width="985" height="335" viewBox="0 0 985 335" fill="none" xmlns="http://www.w3.org/2000/svg">
<path d="M192.585 202.109C178.454 237.763 182.964 305.559 186.985 335H201.202C202.638 335 203.873 325.438 197.324 287.192C189.139 239.384 230.067 180.231 199.478 139.716C175.008 107.303 180.953 67.3281 186.985 51.392C160.446 83.1561 169.034 112.705 176.645 123.509C187.846 134.854 206.716 166.456 192.585 202.109Z" fill="#032125"/>
<path d="M14.8957 236.883C-8.96518 282.424 4.95366 320.001 14.8957 333.097H46C29.6667 333.097 3.98783 315.778 31.9391 246.505C59.8904 177.231 20.2928 119.289 -3 98.9773C12.9073 125.971 38.7566 191.342 14.8957 236.883Z" fill="#011315"/>
<path d="M64.5001 177.969C48.1001 219.844 53.3334 299.47 58.0001 334.048H74.5001C76.1667 334.048 77.6001 322.818 70.0001 277.898C60.5001 221.747 108 152.273 72.5001 104.688C44.1001 66.6193 51.0001 19.6686 58.0001 0.951721C27.2001 38.2585 37.1667 72.964 46.0001 85.6534C59.0001 98.9773 80.9001 136.094 64.5001 177.969Z" fill="#02171A"/>
<path d="M166.583 266.947C183.139 299.159 173.481 325.737 166.583 335H145C156.333 335 174.151 322.75 154.757 273.752C135.362 224.754 162.838 183.77 179 169.403C167.962 188.496 150.026 234.735 166.583 266.947Z" fill="#02171A"/>
<path d="M458.457 202.109C444.326 237.763 448.836 305.559 452.857 335H467.074C468.51 335 469.745 325.438 463.196 287.192C455.011 239.384 495.939 180.231 465.35 139.716C440.88 107.303 446.825 67.3281 452.857 51.392C426.318 83.1561 434.906 112.705 442.517 123.509C453.718 134.854 472.588 166.456 458.457 202.109Z" fill="#02171A"/>
<path d="M389.372 177.969C372.972 219.844 378.206 299.47 382.872 334.048H399.372C401.039 334.048 402.472 322.818 394.872 277.898C385.372 221.747 432.872 152.273 397.372 104.688C368.972 66.6193 375.872 19.6686 382.872 0.951721C352.072 38.2585 362.039 72.964 370.872 85.6534C383.872 98.9773 405.772 136.094 389.372 177.969Z" fill="#011315"/>
<path d="M432.455 266.947C449.011 299.159 439.353 325.737 432.455 335H410.872C422.205 335 440.023 322.75 420.629 273.752C401.234 224.754 428.71 183.77 444.872 169.403C433.834 188.496 415.898 234.735 432.455 266.947Z" fill="#02171A"/>
<path d="M325.104 236.883C348.965 282.424 335.046 320.001 325.104 333.097H294C310.333 333.097 336.012 315.778 308.061 246.505C280.11 177.231 319.707 119.289 343 98.9773C327.093 125.971 301.243 191.342 325.104 236.883Z" fill="#010E10"/>
<path d="M275.5 177.969C291.9 219.844 286.666 299.47 282 334.048H265.5C263.833 334.048 262.4 322.818 270 277.898C279.5 221.747 232 152.273 267.5 104.688C295.9 66.6193 289 19.6686 282 0.951721C312.8 38.2585 302.833 72.964 294 85.6534C281 98.9773 259.1 136.094 275.5 177.969Z" fill="#02171A"/>
<path d="M232.417 266.947C215.861 299.159 225.519 325.737 232.417 335H254C242.667 335 224.849 322.75 244.243 273.752C263.638 224.754 236.162 183.77 220 169.403C231.038 188.496 248.974 234.735 232.417 266.947Z" fill="#010E10"/>
<path d="M834.585 201.158C820.454 236.811 824.964 304.607 828.985 334.048H843.202C844.638 334.048 845.873 324.487 839.324 286.24C831.139 238.432 872.067 179.279 841.478 138.764C817.008 106.352 822.953 66.3764 828.985 50.4403C802.446 82.2044 811.034 111.754 818.645 122.558C829.846 133.902 848.716 165.504 834.585 201.158Z" fill="#02171A"/>
<path d="M715.896 235.931C692.035 281.472 705.954 319.049 715.896 332.145H747C730.667 332.145 704.988 314.826 732.939 245.553C760.89 176.279 721.293 118.337 698 98.0256C713.907 125.019 739.757 190.39 715.896 235.931Z" fill="#010E10"/>
<path d="M765.5 177.017C749.1 218.892 754.334 298.518 759 333.097H775.5C777.167 333.097 778.6 321.866 771 276.946C761.5 220.795 809 151.321 773.5 103.736C745.1 65.6676 752 18.7169 759 0C728.2 37.3068 738.167 72.0123 747 84.7017C760 98.0256 781.9 135.142 765.5 177.017Z" fill="#011315"/>
<path d="M808.583 265.995C825.139 298.207 815.481 324.785 808.583 334.048H787C798.333 334.048 816.151 321.799 796.757 272.8C777.362 223.802 804.838 182.819 821 168.452C809.962 187.544 792.026 233.783 808.583 265.995Z" fill="#032125"/>
<path d="M511.896 235.931C488.035 281.472 501.954 319.049 511.896 332.145H543C526.667 332.145 500.988 314.826 528.939 245.553C556.89 176.279 517.293 118.337 494 98.0256C509.907 125.019 535.757 190.39 511.896 235.931Z" fill="#011315"/>
<path d="M561.5 177.017C545.1 218.892 550.334 298.518 555 333.097H571.5C573.167 333.097 574.6 321.866 567 276.946C557.5 220.795 605 151.321 569.5 103.736C541.1 65.6676 548 18.7169 555 0C524.2 37.3068 534.167 72.0123 543 84.7017C556 98.0256 577.9 135.142 561.5 177.017Z" fill="#02171A"/>
<path d="M604.583 265.995C621.139 298.207 611.481 324.785 604.583 334.048H583C594.333 334.048 612.151 321.799 592.757 272.8C573.362 223.802 600.838 182.819 617 168.452C605.962 187.544 588.026 233.783 604.583 265.995Z" fill="#032125"/>
<path d="M967.104 235.931C990.965 281.472 977.046 319.049 967.104 332.145H936C952.333 332.145 978.012 314.826 950.061 245.553C922.11 176.279 961.707 118.337 985 98.0256C969.093 125.019 943.243 190.39 967.104 235.931Z" fill="#010E10"/>
<path d="M917.5 177.017C933.9 218.892 928.666 298.518 924 333.097H907.5C905.833 333.097 904.4 321.866 912 276.946C921.5 220.795 874 151.321 909.5 103.736C937.9 65.6676 931 18.7169 924 0C954.8 37.3068 944.833 72.0123 936 84.7017C923 98.0256 901.1 135.142 917.5 177.017Z" fill="#02171A"/>
<path d="M874.417 265.995C857.861 298.207 867.519 324.785 874.417 334.048H896C884.667 334.048 866.849 321.799 886.243 272.8C905.638 223.802 878.162 182.819 862 168.452C873.038 187.544 890.974 233.783 874.417 265.995Z" fill="#011315"/>
</svg>
